<svg width="25" height="25" viewBox="0 0 25 25" fill="none" xmlns="http://www.w3.org/2000/svg">
<path d="M22.3381 8.89911C22.3371 8.89811 22.3381 8.89811 22.3381 8.89911C22.3361 8.89811 22.3361 8.89711 22.3351 8.89511C22.3341 8.89511 22.3341 8.89411 22.3341 8.89411C22.2711 8.80111 22.1891 8.72211 22.0991 8.66511L12.9351 2.58511C12.6801 2.41011 12.2911 2.41011 12.0371 2.58511L2.87115 8.66811C2.77815 8.72511 2.69615 8.80511 2.63315 8.89911C2.54015 9.03911 2.49715 9.19611 2.50015 9.35111V15.5111C2.49715 15.6641 2.54015 15.8201 2.63115 15.9591C2.63215 15.9601 2.63215 15.9611 2.63315 15.9621C2.63615 15.9681 2.64015 15.9721 2.64315 15.9771V15.9791C2.64415 15.9791 2.64415 15.9791 2.64415 15.9791C2.64515 15.9791 2.64515 15.9791 2.64515 15.9801C2.64615 15.9801 2.64615 15.9811 2.64615 15.9811C2.70915 16.0691 2.78615 16.1411 2.87215 16.1961L12.0371 22.2781C12.1651 22.3661 12.3191 22.4171 12.4851 22.4171C12.6541 22.4171 12.8081 22.3661 12.9351 22.2781L22.1001 16.1961C22.1911 16.1381 22.2721 16.0621 22.3351 15.9671C22.4291 15.8261 22.4741 15.6671 22.4711 15.5111V9.35111C22.4741 9.19611 22.4301 9.03911 22.3381 8.89911ZM13.2811 4.72711L20.2341 9.34011L17.0511 11.4521L13.2801 8.91611V4.72711H13.2811ZM11.6891 4.72711V8.91611L7.91815 11.4521L4.73715 9.34111L11.6891 4.72711ZM4.09415 10.8251L6.48915 12.4151L4.09415 14.0261V10.8251ZM11.6891 20.1361L4.72915 15.5191L7.92415 13.3691L11.6891 15.8671V20.1361ZM12.4841 14.4831L9.35615 12.4051L12.4841 10.3001L15.6151 12.4051L12.4841 14.4831ZM13.2811 20.1361V15.8661L17.0471 13.3681L20.2401 15.5181L13.2811 20.1361ZM20.8781 14.0261L18.4821 12.4151L20.8781 10.8251V14.0261Z" fill="#9CA3AF"/>
</svg>
