<svg width="25" height="25" viewBox="0 0 25 25" fill="none" xmlns="http://www.w3.org/2000/svg">
<path d="M20.5 3.4541H4.5C3.947 3.4541 3.5 3.9021 3.5 4.4541V20.4541C3.5 21.0061 3.947 21.4541 4.5 21.4541H20.5C21.053 21.4541 21.5 21.0061 21.5 20.4541V4.4541C21.5 3.9021 21.053 3.4541 20.5 3.4541ZM8.839 18.7911H6.167V10.2011H8.839V18.7911ZM7.503 9.0281C6.647 9.0281 5.955 8.3341 5.955 7.4801C5.955 6.6261 6.646 5.9321 7.503 5.9321C8.357 5.9321 9.051 6.6251 9.051 7.4801C9.051 8.3351 8.357 9.0281 7.503 9.0281ZM18.838 18.7911H16.169V14.6141C16.169 13.6181 16.151 12.3371 14.781 12.3371C13.391 12.3371 13.18 13.4231 13.18 14.5441V18.7921H10.513V10.2021H13.073V11.3761H13.11C13.465 10.7011 14.337 9.9891 15.634 9.9891C18.338 9.9891 18.837 11.7671 18.837 14.0811L18.838 18.7911Z" fill="#9CA3AF"/>
</svg>
