<svg width="25" height="25" viewBox="0 0 25 25" fill="none" xmlns="http://www.w3.org/2000/svg">
<path d="M20.133 8.45111C20.146 8.62611 20.146 8.80011 20.146 8.97411C20.146 14.2991 16.093 20.4351 8.686 20.4351C6.404 20.4351 4.284 19.7741 2.5 18.6261C2.824 18.6631 3.136 18.6761 3.473 18.6761C5.356 18.6761 7.089 18.0401 8.474 16.9551C6.703 16.9181 5.219 15.7581 4.707 14.1621C4.956 14.1991 5.206 14.2241 5.468 14.2241C5.829 14.2241 6.192 14.1741 6.529 14.0871C4.682 13.7131 3.299 12.0921 3.299 10.1341V10.0841C3.836 10.3831 4.459 10.5701 5.119 10.5951C4.034 9.87311 3.323 8.63811 3.323 7.24111C3.323 6.49311 3.522 5.80711 3.871 5.20911C5.854 7.65211 8.835 9.24911 12.177 9.42411C12.115 9.12411 12.077 8.81311 12.077 8.50111C12.077 6.28111 13.873 4.47311 16.105 4.47311C17.265 4.47311 18.312 4.95911 19.048 5.74511C19.958 5.57011 20.83 5.23311 21.604 4.77211C21.305 5.70711 20.668 6.49311 19.833 6.99211C20.644 6.90411 21.43 6.68011 22.152 6.36811C21.604 7.16611 20.919 7.87711 20.133 8.45111Z" fill="#9CA3AF"/>
</svg>
