<svg width="25" height="25" viewBox="0 0 25 25" fill="none" xmlns="http://www.w3.org/2000/svg">
<path d="M21.4461 8.75909C21.4351 8.00209 21.2951 7.25109 21.0271 6.54309C20.5581 5.33409 19.6031 4.37809 18.3941 3.91009C17.6951 3.64709 16.9561 3.50609 16.2081 3.49009C15.2461 3.44709 14.9411 3.43509 12.4991 3.43509C10.0571 3.43509 9.74409 3.43509 8.78909 3.49009C8.04209 3.50609 7.30309 3.64709 6.60409 3.91009C5.39509 4.37809 4.43909 5.33409 3.97109 6.54309C3.70809 7.24209 3.56609 7.98109 3.55209 8.72809C3.50909 9.69109 3.49609 9.99609 3.49609 12.4381C3.49609 14.8801 3.49609 15.1921 3.55209 16.1481C3.56709 16.8961 3.70809 17.6341 3.97109 18.3351C4.44009 19.5431 5.39509 20.4991 6.60509 20.9671C7.30109 21.2391 8.04009 21.3931 8.79009 21.4171C9.75309 21.4601 10.0581 21.4731 12.5001 21.4731C14.9421 21.4731 15.2551 21.4731 16.2101 21.4171C16.9571 21.4021 17.6961 21.2611 18.3961 20.9981C19.6051 20.5291 20.5601 19.5731 21.0291 18.3651C21.2921 17.6651 21.4331 16.9271 21.4481 16.1781C21.4911 15.2161 21.5041 14.9111 21.5041 12.4681C21.5021 10.0261 21.5021 9.71609 21.4461 8.75909ZM12.4931 17.0561C9.93909 17.0561 7.87009 14.9871 7.87009 12.4331C7.87009 9.87909 9.93909 7.81009 12.4931 7.81009C15.0451 7.81009 17.1161 9.87909 17.1161 12.4331C17.1161 14.9871 15.0451 17.0561 12.4931 17.0561ZM17.3001 8.71709C16.7031 8.71709 16.2221 8.23509 16.2221 7.63909C16.2221 7.04309 16.7031 6.56109 17.3001 6.56109C17.8951 6.56109 18.3771 7.04309 18.3771 7.63909C18.3771 8.23509 17.8951 8.71709 17.3001 8.71709Z" fill="#9CA3AF"/>
<path d="M12.4932 15.4361C14.1517 15.4361 15.4962 14.0916 15.4962 12.4331C15.4962 10.7746 14.1517 9.43011 12.4932 9.43011C10.8347 9.43011 9.49023 10.7746 9.49023 12.4331C9.49023 14.0916 10.8347 15.4361 12.4932 15.4361Z" fill="#9CA3AF"/>
</svg>
