<svg width="20" height="20" viewBox="0 0 20 20" fill="none" xmlns="http://www.w3.org/2000/svg">
<path d="M19.8381 6.44501C19.8371 6.44401 19.8381 6.44401 19.8381 6.44501C19.8361 6.44401 19.8361 6.44301 19.8351 6.44101C19.8341 6.44101 19.8341 6.44001 19.8341 6.44001C19.7711 6.34701 19.6891 6.26801 19.5991 6.21101L10.4351 0.131006C10.1801 -0.0439941 9.79115 -0.0439941 9.53715 0.131006L0.371147 6.21401C0.278147 6.27101 0.196147 6.35101 0.133147 6.44501C0.0401466 6.58501 -0.00285333 6.74201 0.00014667 6.89701V13.057C-0.00285333 13.21 0.0401467 13.366 0.131147 13.505C0.132147 13.506 0.132147 13.507 0.133147 13.508C0.136147 13.514 0.140147 13.518 0.143147 13.523V13.525C0.144147 13.525 0.144147 13.525 0.144147 13.525C0.145147 13.525 0.145147 13.525 0.145147 13.526C0.146147 13.526 0.146147 13.527 0.146147 13.527C0.209147 13.615 0.286147 13.687 0.372147 13.742L9.53715 19.824C9.66515 19.912 9.81915 19.963 9.98515 19.963C10.1541 19.963 10.3081 19.912 10.4351 19.824L19.6001 13.742C19.6911 13.684 19.7721 13.608 19.8351 13.513C19.9291 13.372 19.9741 13.213 19.9711 13.057V6.89701C19.9741 6.74201 19.9301 6.58501 19.8381 6.44501ZM10.7811 2.27301L17.7341 6.88601L14.5511 8.99801L10.7801 6.46201V2.27301H10.7811ZM9.18915 2.27301V6.46201L5.41815 8.99801L2.23715 6.88701L9.18915 2.27301ZM1.59415 8.37101L3.98915 9.96101L1.59415 11.572V8.37101ZM9.18915 17.682L2.22915 13.065L5.42415 10.915L9.18915 13.413V17.682ZM9.98415 12.029L6.85615 9.95101L9.98415 7.84601L13.1151 9.95101L9.98415 12.029ZM10.7811 17.682V13.412L14.5471 10.914L17.7401 13.064L10.7811 17.682ZM18.3781 11.572L15.9821 9.96101L18.3781 8.37101V11.572Z" fill="#9CA3AF"/>
</svg>
