<svg width="20" height="20" viewBox="0 0 20 20" fill="none" xmlns="http://www.w3.org/2000/svg">
<path fill-rule="evenodd" clip-rule="evenodd" d="M10.0267 0C4.51773 0 0.0527344 4.465 0.0527344 9.974C0.0527344 14.38 2.90973 18.119 6.87373 19.439C7.37273 19.529 7.55273 19.222 7.55273 18.958C7.55273 18.721 7.54473 18.093 7.54173 17.262C4.76673 17.864 4.18073 15.924 4.18073 15.924C3.72873 14.772 3.07373 14.465 3.07373 14.465C2.16873 13.846 3.14273 13.86 3.14273 13.86C4.14473 13.93 4.66973 14.888 4.66973 14.888C5.55973 16.412 7.00573 15.972 7.57173 15.717C7.66273 15.072 7.92273 14.632 8.20673 14.383C5.99273 14.132 3.66473 13.276 3.66473 9.453C3.66473 8.366 4.05373 7.474 4.68873 6.778C4.58773 6.525 4.24273 5.51 4.78773 4.138C4.78773 4.138 5.62473 3.869 7.52973 5.159C8.32773 4.938 9.17873 4.827 10.0257 4.823C10.8747 4.827 11.7267 4.938 12.5217 5.159C14.4277 3.868 15.2637 4.138 15.2637 4.138C15.8087 5.51 15.4667 6.525 15.3627 6.778C16.0027 7.474 16.3867 8.365 16.3867 9.453C16.3867 13.286 14.0567 14.128 11.8347 14.375C12.1897 14.683 12.5097 15.291 12.5097 16.221C12.5097 17.555 12.4977 18.631 12.4977 18.958C12.4977 19.225 12.6757 19.535 13.1847 19.437C17.1467 18.115 20.0007 14.379 20.0007 9.974C20.0007 4.465 15.5357 0 10.0267 0Z" fill="#9CA3AF"/>
</svg>
