<svg width="18" height="20" viewBox="0 0 18 20" fill="none" xmlns="http://www.w3.org/2000/svg">
<path d="M17.9461 6.30496C17.9351 5.54796 17.7951 4.79696 17.5271 4.08896C17.0581 2.87996 16.1031 1.92396 14.8941 1.45596C14.1951 1.19296 13.4561 1.05196 12.7081 1.03596C11.7461 0.992957 11.4411 0.980957 8.99909 0.980957C6.55709 0.980957 6.24409 0.980957 5.28909 1.03596C4.54209 1.05196 3.80309 1.19296 3.10409 1.45596C1.89509 1.92396 0.939094 2.87996 0.471094 4.08896C0.208094 4.78796 0.0660937 5.52696 0.0520937 6.27396C0.00909374 7.23696 -0.00390625 7.54196 -0.00390625 9.98396C-0.00390625 12.426 -0.00390626 12.738 0.0520937 13.694C0.0670937 14.442 0.208094 15.18 0.471094 15.881C0.940094 17.089 1.89509 18.045 3.10509 18.513C3.80109 18.785 4.54009 18.939 5.29009 18.963C6.25309 19.006 6.55809 19.019 9.00009 19.019C11.4421 19.019 11.7551 19.019 12.7101 18.963C13.4571 18.948 14.1961 18.807 14.8961 18.544C16.1051 18.075 17.0601 17.119 17.5291 15.911C17.7921 15.211 17.9331 14.473 17.9481 13.724C17.9911 12.762 18.0041 12.457 18.0041 10.014C18.0021 7.57196 18.0021 7.26196 17.9461 6.30496ZM8.99309 14.602C6.43909 14.602 4.37009 12.533 4.37009 9.97896C4.37009 7.42496 6.43909 5.35596 8.99309 5.35596C11.5451 5.35596 13.6161 7.42496 13.6161 9.97896C13.6161 12.533 11.5451 14.602 8.99309 14.602ZM13.8001 6.26296C13.2031 6.26296 12.7221 5.78096 12.7221 5.18496C12.7221 4.58896 13.2031 4.10696 13.8001 4.10696C14.3951 4.10696 14.8771 4.58896 14.8771 5.18496C14.8771 5.78096 14.3951 6.26296 13.8001 6.26296Z" fill="#9CA3AF"/>
</svg>
